<svg id="Capa_1" enable-background="new 0 0 512 512" height="512" viewBox="0 0 512 512" width="512" xmlns="http://www.w3.org/2000/svg"><g><g id="Fireworks_2_"><g><path d="m256 151c-8.291 0-15-6.709-15-15v-121c0-8.291 6.709-15 15-15s15 6.709 15 15v121c0 8.291-6.709 15-15 15z" fill="#fed843"/></g><g><path d="m256 512c-8.291 0-15-6.709-15-15v-121c0-8.291 6.709-15 15-15s15 6.709 15 15v121c0 8.291-6.709 15-15 15z" fill="#fed843"/></g><g><g><path d="m197.143 150.37-22.5-55.635c-3.105-7.676.615-16.421 8.291-19.526s16.406.586 19.541 8.276l22.5 55.635c3.105 7.676-.615 16.421-8.291 19.526-7.693 3.114-16.426-.621-19.541-8.276z" fill="#d9f"/></g></g><g><g><path d="m309.525 428.515-22.5-55.635c-3.105-7.676.615-16.421 8.291-19.526 7.676-3.135 16.406.601 19.541 8.276l22.5 55.635c3.105 7.676-.615 16.421-8.291 19.526-7.693 3.114-16.425-.621-19.541-8.276z" fill="#c6f"/></g></g><g><path d="m160.551 181.747-84.873-84.844c-5.859-5.859-5.859-15.352 0-21.211s15.352-5.859 21.211 0l84.873 84.844c5.859 5.859 5.859 15.352 0 21.211-5.86 5.859-15.352 5.86-21.211 0z" fill="#fed843"/></g><g><path d="m415.111 436.308-84.873-84.844c-5.859-5.859-5.859-15.352 0-21.211s15.352-5.859 21.211 0l84.873 84.844c5.859 5.859 5.859 15.352 0 21.211s-15.351 5.859-21.211 0z" fill="#fabe2c"/></g><g><path d="m136 271h-121c-8.291 0-15-6.709-15-15s6.709-15 15-15h121c8.291 0 15 6.709 15 15s-6.709 15-15 15z" fill="#fed843"/></g><g><path d="m497 271h-121c-8.291 0-15-6.709-15-15s6.709-15 15-15h121c8.291 0 15 6.709 15 15s-6.709 15-15 15z" fill="#fabe2c"/></g><g><path d="m75.678 436.308c-5.859-5.859-5.859-15.352 0-21.211l84.873-84.844c5.859-5.859 15.352-5.859 21.211 0s5.859 15.352 0 21.211l-84.873 84.844c-5.86 5.859-15.352 5.859-21.211 0z" fill="#fed843"/></g><g><path d="m330.238 181.747c-5.859-5.859-5.859-15.352 0-21.211l84.873-84.844c5.859-5.859 15.352-5.859 21.211 0s5.859 15.352 0 21.211l-84.873 84.844c-5.859 5.859-15.351 5.86-21.211 0z" fill="#fabe2c"/></g><g><circle cx="345.906" cy="478.524" fill="#f37" r="15"/></g><g><g><circle cx="166.094" cy="33.476" fill="#f69" r="15"/></g></g><g><g><path d="m139.691 222.924-55.254-23.438c-7.617-3.237-11.191-12.041-7.939-19.673 3.223-7.632 12.129-11.162 19.658-7.954l55.254 23.438c7.617 3.237 11.191 12.041 7.939 19.673-3.226 7.673-12.092 11.155-19.658 7.954z" fill="#d9f"/></g></g><g><g><path d="m415.844 340.141-55.254-23.438c-7.617-3.237-11.191-12.041-7.939-19.673 3.223-7.646 12.1-11.133 19.658-7.954l55.254 23.438c7.617 3.237 11.191 12.041 7.939 19.673-3.227 7.673-12.093 11.154-19.658 7.954z" fill="#c6f"/></g></g><g><circle cx="476.921" cy="349.775" fill="#f37" r="15"/></g><g><g><circle cx="35.079" cy="162.225" fill="#f69" r="15"/></g></g><g><g><path d="m75.18 329.037c-3.105-7.676.615-16.421 8.291-19.512l55.635-22.471c7.646-3.135 16.406.586 19.541 8.291 3.105 7.676-.615 16.421-8.291 19.512l-55.635 22.471c-7.721 3.125-16.437-.645-19.541-8.291z" fill="#d9f"/></g></g><g><g><path d="m353.354 216.654c-3.105-7.676.615-16.421 8.291-19.512l55.635-22.471c7.646-3.149 16.406.586 19.541 8.291 3.105 7.676-.615 16.421-8.291 19.512l-55.635 22.471c-7.721 3.125-16.437-.645-19.541-8.291z" fill="#c6f"/></g></g><g><circle cx="478.524" cy="166.094" fill="#f37" r="15"/></g><g><circle cx="33.476" cy="345.906" fill="#f69" r="15"/></g><g><g><path d="m179.799 435.487c-7.617-3.237-11.191-12.041-7.939-19.658l23.467-55.225c3.252-7.646 12.1-11.206 19.658-7.939 7.617 3.237 11.191 12.041 7.939 19.658l-23.467 55.225c-3.282 7.71-12.166 11.167-19.658 7.939z" fill="#d9f"/></g></g><g><g><path d="m297.016 159.335c-7.617-3.237-11.191-12.041-7.939-19.658l23.467-55.225c3.223-7.632 12.07-11.177 19.658-7.939 7.617 3.237 11.191 12.041 7.939 19.658l-23.467 55.225c-3.282 7.71-12.166 11.166-19.658 7.939z" fill="#c6f"/></g></g><g><circle cx="349.775" cy="35.079" fill="#f37" r="15"/></g><g><g><circle cx="162.225" cy="476.921" fill="#f69" r="15"/></g></g></g><path d="m256 331c-8.291 0-15-6.709-15-15 0-24.814-20.186-45-45-45-8.291 0-15-6.709-15-15s6.709-15 15-15c24.814 0 45-20.186 45-45 0-8.291 6.709-15 15-15s15 6.709 15 15c0 24.814 20.186 45 45 45 8.291 0 15 6.709 15 15s-6.709 15-15 15c-24.814 0-45 20.186-45 45 0 8.291-6.709 15-15 15z" fill="#f69"/><path d="m271 497v-121c0-8.291-6.709-15-15-15v151c8.291 0 15-6.709 15-15z" fill="#fabe2c"/><path d="m271 136v-121c0-8.291-6.709-15-15-15v151c8.291 0 15-6.709 15-15z" fill="#fabe2c"/><path d="m271 316c0-24.814 20.186-45 45-45 8.291 0 15-6.709 15-15s-6.709-15-15-15c-24.814 0-45-20.186-45-45 0-8.291-6.709-15-15-15v150c8.291 0 15-6.709 15-15z" fill="#f37"/></g></svg>