<svg id="Capa_1" enable-background="new 0 0 512 512" height="512" viewBox="0 0 512 512" width="512" xmlns="http://www.w3.org/2000/svg"><g><path d="m450.891 410.402c-3.164-2.674-7.896-2.275-10.569.887-4.432 5.244-9.11 10.334-13.904 15.128-45.527 45.516-106.049 70.583-170.418 70.583s-124.891-25.067-170.416-70.583c-45.517-45.526-70.584-106.048-70.584-170.417 0-40.424 10.23-80.455 29.587-115.765 1.739-3.174.964-7.138-1.844-9.423l-8.687-7.067c-2.771-2.256-2.629-5.233-2.44-6.408.189-1.177.991-4.053 4.331-5.327l27.68-10.53c3.871-1.473 5.815-5.805 4.343-9.676-1.474-3.873-5.806-5.817-9.677-4.343l-27.686 10.531c-7.386 2.817-12.545 9.158-13.8 16.961-1.256 7.8 1.651 15.434 7.779 20.425l3.904 3.176c-18.655 36.137-28.49 76.605-28.49 117.446 0 68.375 26.627 132.664 74.978 181.024 48.359 48.349 112.647 74.976 181.022 74.976s132.663-26.627 181.022-74.976c5.09-5.089 10.055-10.49 14.756-16.053 2.674-3.163 2.277-7.896-.887-10.569z"/><path d="m437.022 74.976c-48.359-48.349-112.647-74.976-181.022-74.976-20.115 0-36.48 16.365-36.48 36.48 0 20.121 16.365 36.49 36.48 36.49 100.923 0 183.03 82.107 183.03 183.03s-82.107 183.03-183.03 183.03-183.03-82.107-183.03-183.03c0-23.892 4.775-47.875 13.87-69.93l2.193 1.786c6.129 4.991 14.194 6.292 21.58 3.481 7.384-2.812 12.543-9.149 13.801-16.954l13.221-82.048c1.258-7.799-1.647-15.434-7.771-20.423-6.128-4.991-14.195-6.291-21.58-3.481l-22.08 8.4c-3.871 1.473-5.815 5.805-4.343 9.676 1.472 3.872 5.804 5.815 9.677 4.343l22.08-8.4c3.341-1.269 5.85.34 6.772 1.092.922.751 3.005 2.879 2.437 6.406l-13.221 82.049c-.569 3.532-3.218 4.898-4.329 5.321-1.112.424-3.997 1.165-6.771-1.094l-9.8-7.98c-1.784-1.453-4.136-2.006-6.382-1.501-2.245.505-4.134 2.013-5.124 4.09-12.581 26.395-19.23 55.845-19.23 85.167 0 109.194 88.836 198.03 198.03 198.03s198.03-88.836 198.03-198.03-88.836-198.03-198.03-198.03c-11.845 0-21.48-9.641-21.48-21.49 0-11.844 9.635-21.48 21.48-21.48 64.369 0 124.891 25.067 170.416 70.583 45.517 45.526 70.584 106.048 70.584 170.417 0 47.272-13.582 92.92-39.277 132.01-2.275 3.461-1.313 8.112 2.147 10.387 3.464 2.276 8.111 1.315 10.388-2.147 27.307-41.544 41.742-90.042 41.742-140.25 0-68.375-26.627-132.664-74.978-181.024z"/><path d="m196.263 279.878h59.736.001c13.166-.001 23.877-10.713 23.877-23.878v-41.82c0-13.167-10.712-23.878-23.879-23.878-13.166 0-23.878 10.712-23.878 23.878v17.942h-35.857c-13.167 0-23.879 10.712-23.879 23.878s10.712 23.878 23.879 23.878zm59.735-74.577c4.896 0 8.879 3.983 8.879 8.878v41.821c0 4.896-3.983 8.878-8.879 8.878s-8.878-3.983-8.878-8.878v-41.82c0-4.896 3.983-8.879 8.878-8.879zm-59.735 41.821h35.857v8.878c0 3.137.614 6.132 1.719 8.878h-37.576c-4.896 0-8.879-3.983-8.879-8.878s3.983-8.878 8.879-8.878z"/><path d="m255.999 392.065c75.026 0 136.064-61.039 136.064-136.065s-61.038-136.065-136.064-136.065-136.065 61.039-136.065 136.065 61.039 136.065 136.065 136.065zm-66.89-236.921 4.249 7.36c1.389 2.406 3.91 3.751 6.502 3.751 1.272 0 2.562-.324 3.743-1.006 3.587-2.071 4.816-6.658 2.745-10.245l-4.261-7.38c14.131-7.058 29.824-11.43 46.411-12.449v19.455c0 4.142 3.357 7.5 7.5 7.5s7.5-3.358 7.5-7.5v-19.455c16.587 1.019 32.28 5.392 46.41 12.449l-4.261 7.38c-2.071 3.587-.842 8.174 2.745 10.245 1.182.682 2.471 1.006 3.743 1.006 2.592 0 5.113-1.346 6.502-3.751l4.249-7.36c13.451 8.951 25.016 20.516 33.967 33.967l-7.36 4.25c-3.587 2.071-4.816 6.658-2.745 10.245 1.39 2.406 3.91 3.751 6.502 3.751 1.272 0 2.562-.324 3.743-1.006l7.381-4.261c7.058 14.13 11.431 29.824 12.449 46.411h-19.453c-4.143 0-7.5 3.358-7.5 7.5s3.357 7.5 7.5 7.5h19.454c-1.019 16.587-5.392 32.281-12.449 46.411l-7.381-4.261c-3.589-2.072-8.175-.842-10.245 2.745-2.071 3.587-.842 8.174 2.745 10.245l7.36 4.25c-8.95 13.451-20.516 25.016-33.967 33.967l-4.249-7.36c-2.07-3.587-6.66-4.816-10.245-2.745-3.587 2.071-4.816 6.658-2.745 10.245l4.261 7.38c-14.13 7.058-29.823 11.43-46.41 12.449v-19.455c0-4.142-3.357-7.5-7.5-7.5s-7.5 3.358-7.5 7.5v19.455c-16.588-1.019-32.281-5.392-46.411-12.449l4.261-7.38c2.071-3.587.842-8.174-2.745-10.245-3.59-2.072-8.175-.842-10.245 2.745l-4.249 7.36c-13.451-8.95-25.016-20.516-33.967-33.967l7.36-4.25c3.587-2.071 4.816-6.658 2.745-10.245-2.072-3.587-6.659-4.816-10.245-2.745l-7.381 4.261c-7.058-14.131-11.431-29.824-12.449-46.411h19.454c4.143 0 7.5-3.358 7.5-7.5s-3.357-7.5-7.5-7.5h-19.454c1.019-16.587 5.392-32.281 12.449-46.411l7.381 4.261c1.182.682 2.471 1.006 3.743 1.006 2.592 0 5.113-1.346 6.502-3.751 2.071-3.587.842-8.174-2.745-10.245l-7.36-4.25c8.95-13.452 20.515-25.017 33.966-33.967z"/></g></svg>